[Header]
FileType HTR
DataType HTRS
FileVersion 1
NumSegments 64
NumFrames 4
DataFrameRate 30
EulerRotationOrder ZYX
CalibrationUnits mm
RotationUnits Degrees
GlobalAxisofGravity Y
BoneLengthAxis Y
ScaleFactor 1.0
[SegmentNames&Hierarchy]
Hips	GLOBAL
Spine	Hips
Spine1	Spine
Spine2	Spine1
Neck	Spine2
Head	Neck
LeftEye	Head
RightEye	Head
LeftShoulder	Spine2
LeftArm	LeftShoulder
LeftForeArm	LeftArm
LeftHand	LeftForeArm
LeftHandThumb1	LeftHand
LeftHandThumb2	LeftHandThumb1
LeftHandThumb3	LeftHandThumb2
LeftHandThumb4	LeftHandThumb3
LeftHandIndex1	LeftHand
LeftHandIndex2	LeftHandIndex1
LeftHandIndex3	LeftHandIndex2
LeftHandIndex4	LeftHandIndex3
LeftHandMiddle1	LeftHand
LeftHandMiddle2	LeftHandMiddle1
LeftHandMiddle3	LeftHandMiddle2
LeftHandMiddle4	LeftHandMiddle3
LeftHandRing1	LeftHand
LeftHandRing2	LeftHandRing1
LeftHandRing3	LeftHandRing2
LeftHandRing4	LeftHandRing3
LeftHandPinky1	LeftHand
LeftHandPinky2	LeftHandPinky1
LeftHandPinky3	LeftHandPinky2
LeftHandPinky4	LeftHandPinky3
RightShoulder	Spine2
RightArm	RightShoulder
RightForeArm	RightArm
RightHand	RightForeArm
RightHandPinky1	RightHand
RightHandPinky2	RightHandPinky1
RightHandPinky3	RightHandPinky2
RightHandPinky4	RightHandPinky3
RightHandRing1	RightHand
RightHandRing2	RightHandRing1
RightHandRing3	RightHandRing2
RightHandRing4	RightHandRing3
RightHandMiddle1	RightHand
RightHandMiddle2	RightHandMiddle1
RightHandMiddle3	RightHandMiddle2
RightHandMiddle4	RightHandMiddle3
RightHandIndex1	RightHand
RightHandIndex2	RightHandIndex1
RightHandIndex3	RightHandIndex2
RightHandIndex4	RightHandIndex3
RightHandThumb1	RightHand
RightHandThumb2	RightHandThumb1
RightHandThumb3	RightHandThumb2
RightHandThumb4	RightHandThumb3
LeftUpLeg	Hips
LeftLeg	LeftUpLeg
LeftFoot	LeftLeg
LeftToeBase	LeftFoot
RightUpLeg	Hips
RightLeg	RightUpLeg
RightFoot	RightLeg
RightToeBase	RightFoot
[BasePosition]
Hips	0	0	0	0	0	0	1
Spine	0	0	0	0	0	0	1
Spine1	0	0	0	0	0	0	1
Spine2	0	0	0	0	0	0	1
Neck	0	0	0	0	0	0	1
Head	0	0	0	0	0	0	1
LeftEye	0	0	0	0	0	0	1
RightEye	0	0	0	0	0	0	1
LeftShoulder	0	0	0	0	0	0	1
LeftArm	0	0	0	0	0	0	1
LeftForeArm	0	0	0	0	0	0	1
LeftHand	0	0	0	0	0	0	1
LeftHandThumb1	0	0	0	0	0	0	1
LeftHandThumb2	0	0	0	0	0	0	1
LeftHandThumb3	0	0	0	0	0	0	1
LeftHandThumb4	0	0	0	0	0	0	1
LeftHandIndex1	0	0	0	0	0	0	1
LeftHandIndex2	0	0	0	0	0	0	1
LeftHandIndex3	0	0	0	0	0	0	1
LeftHandIndex4	0	0	0	0	0	0	1
LeftHandMiddle1	0	0	0	0	0	0	1
LeftHandMiddle2	0	0	0	0	0	0	1
LeftHandMiddle3	0	0	0	0	0	0	1
LeftHandMiddle4	0	0	0	0	0	0	1
LeftHandRing1	0	0	0	0	0	0	1
LeftHandRing2	0	0	0	0	0	0	1
LeftHandRing3	0	0	0	0	0	0	1
LeftHandRing4	0	0	0	0	0	0	1
LeftHandPinky1	0	0	0	0	0	0	1
LeftHandPinky2	0	0	0	0	0	0	1
LeftHandPinky3	0	0	0	0	0	0	1
LeftHandPinky4	0	0	0	0	0	0	1
RightShoulder	0	0	0	0	0	0	1
RightArm	0	0	0	0	0	0	1
RightForeArm	0	0	0	0	0	0	1
RightHand	0	0	0	0	0	0	1
RightHandPinky1	0	0	0	0	0	0	1
RightHandPinky2	0	0	0	0	0	0	1
RightHandPinky3	0	0	0	0	0	0	1
RightHandPinky4	0	0	0	0	0	0	1
RightHandRing1	0	0	0	0	0	0	1
RightHandRing2	0	0	0	0	0	0	1
RightHandRing3	0	0	0	0	0	0	1
RightHandRing4	0	0	0	0	0	0	1
RightHandMiddle1	0	0	0	0	0	0	1
RightHandMiddle2	0	0	0	0	0	0	1
RightHandMiddle3	0	0	0	0	0	0	1
RightHandMiddle4	0	0	0	0	0	0	1
RightHandIndex1	0	0	0	0	0	0	1
RightHandIndex2	0	0	0	0	0	0	1
RightHandIndex3	0	0	0	0	0	0	1
RightHandIndex4	0	0	0	0	0	0	1
RightHandThumb1	0	0	0	0	0	0	1
RightHandThumb2	0	0	0	0	0	0	1
RightHandThumb3	0	0	0	0	0	0	1
RightHandThumb4	0	0	0	0	0	0	1
LeftUpLeg	0	0	0	0	0	0	1
LeftLeg	0	0	0	0	0	0	1
LeftFoot	0	0	0	0	0	0	1
LeftToeBase	0	0	0	0	0	0	1
RightUpLeg	0	0	0	0	0	0	1
RightLeg	0	0	0	0	0	0	1
RightFoot	0	0	0	0	0	0	1
RightToeBase	0	0	0	0	0	0	1
[Hips]
38	82.94560242	1143.388062	14.64202118	7.535872936	-0.8448531628	-6.225723267	1.0
39	82.17787933	1083.151611	40.84476852	4.73753643	1.434485316	-6.743377686	1.0
40	71.51370239	1016.814331	55.92161179	2.816578388	5.898108959	-7.745553493	1.0
41	52.76390076	952.9783936	55.84028625	2.529631376	11.8049078	-9.427516937	1.0
[Spine]
38	0	101.8159943	1.315000057	8.580639839	5.10822916	4.654877186	1.0
39	0	101.8159943	1.315000057	7.554940701	5.34509325	4.309733868	1.0
40	0	101.8159943	1.315000057	6.956395149	5.043858051	3.520443916	1.0
41	0	101.8159943	1.315000057	6.842072487	4.334776878	2.982631922	1.0
[Spine1]
38	0	100.8349991	-10.00800037	2.879832029	2.687486172	2.017760992	1.0
39	0	100.8349991	-10.00800037	2.561830282	2.841116667	1.827272534	1.0
40	0	100.8349991	-10.00800037	2.546576262	2.813209534	1.554049253	1.0
41	0	100.8349991	-10.00800037	2.71029377	2.59257865	1.32882762	1.0
[Spine2]
38	0	91	-13.73399925	2.86465621	2.741350889	1.900754213	1.0
39	0	91	-13.73399925	2.552104473	2.875071049	1.726039886	1.0
40	0	91	-13.73399925	2.545632362	2.82030201	1.473539114	1.0
41	0	91	-13.73399925	2.711033583	2.58580637	1.268036962	1.0
[Neck]
38	0	166.7169952	-25.16200066	20.429842	-2.170092344	-2.850845337	1.0
39	0	166.7169952	-25.16200066	19.19431114	-2.723170996	-1.413504481	1.0
40	0	166.7169952	-25.16200066	16.4061451	-3.280459881	-0.07413695753	1.0
41	0	166.7169952	-25.16200066	12.70234299	-3.709523201	0.5405281782	1.0
[Head]
38	0	96.17900085	16.84999847	-18.89166832	-9.676823616	6.00271368	1.0
39	0	96.17900085	16.84999847	-15.66772747	-11.08512688	8.545559883	1.0
40	0	96.17900085	16.84999847	-15.08125401	-13.18822193	13.0513382	1.0
41	0	96.17900085	16.84999847	-17.56668282	-15.60224152	18.14359474	1.0
[LeftEye]
38	30.6760006	64.09500122	92.83599854	0	0	0	1.0
39	30.6760006	64.09500122	92.83599854	0	0	0	1.0
40	30.6760006	64.09500122	92.83599854	0	0	0	1.0
41	30.6760006	64.09500122	92.83599854	0	0	0	1.0
[RightEye]
38	-30.6760006	64.09500122	92.83499908	0	0	0	1.0
39	-30.6760006	64.09500122	92.83499908	0	0	0	1.0
40	-30.6760006	64.09500122	92.83499908	0	0	0	1.0
41	-30.6760006	64.09500122	92.83499908	0	0	0	1.0
[LeftShoulder]
38	45.70400238	109.4599991	-26.28000069	4.213101387	6.352460384	26.7772789	1.0
39	45.70400238	109.4599991	-26.28000069	4.153307915	7.358408451	23.11087799	1.0
40	45.70400238	109.4599991	-26.28000069	3.768836975	6.663939476	17.71950722	1.0
41	45.70400238	109.4599991	-26.28000069	3.28301692	4.010952473	10.6928587	1.0
[LeftArm]
38	105.923996	-5.24600029	-22.32099915	12.31827259	-13.23472309	-9.120075226	1.0
39	105.923996	-5.24600029	-22.32099915	12.32384014	-4.037891865	-15.02505589	1.0
40	105.923996	-5.24600029	-22.32099915	7.901554108	5.52116394	-21.22908783	1.0
41	105.923996	-5.24600029	-22.32099915	-0.5576783419	11.69745064	-29.72047424	1.0
[LeftForeArm]
38	278.414978	-0.0009999999311	0	3.56982564e-05	-82.91834259	-0.0003421799629	1.0
39	278.414978	-0.0009999999311	0	2.65079052e-05	-92.59442139	-0.0003309934982	1.0
40	278.414978	-0.0009999999311	0	1.161663749e-05	-98.24076843	-0.0001809959067	1.0
41	278.414978	-0.0009999999311	0	9.155271255e-05	-97.44805145	-0.000259399385	1.0
[LeftHand]
38	283.2879944	0	0	-30.17894363	-8.97032547	49.0822525	1.0
39	283.2879944	0	0	-30.58637619	-10.63025379	46.59603119	1.0
40	283.2879944	0	0	-31.84119987	-11.62598991	41.19648361	1.0
41	283.2879944	0	0	-32.74412537	-11.66270828	36.17627716	1.0
[LeftHandThumb1]
38	24.6609993	-15.75	26.8239994	-2.643416405	-3.552881718	3.033539772	1.0
39	24.6609993	-15.75	26.8239994	-2.171375275	-2.260709286	3.411673307	1.0
40	24.6609993	-15.75	26.8239994	-1.421950579	-0.239794001	4.024989128	1.0
41	24.6609993	-15.75	26.8239994	-0.7203631401	1.606872439	4.620889664	1.0
[LeftHandThumb2]
38	32.29800034	-18.64699936	18.64699936	2.60328126	-0.8589198589	13.670084	1.0
39	32.29800034	-18.64699936	18.64699936	4.310322285	4.650912285	14.60305882	1.0
40	32.29800034	-18.64699936	18.64699936	7.654474258	13.28185844	15.76699638	1.0
41	32.29800034	-18.64699936	18.64699936	9.132834435	20.57563591	16.70535278	1.0
[LeftHandThumb3]
38	26.52600098	-15.31499958	15.31499958	-22.14389229	-14.51588726	9.028829575	1.0
39	26.52600098	-15.31499958	15.31499958	-19.77326202	-9.370594025	8.476312637	1.0
40	26.52600098	-15.31499958	15.31499958	-16.3193264	-1.225166917	7.997604847	1.0
41	26.52600098	-15.31499958	15.31499958	-13.15220737	7.694935322	8.19699192	1.0
[LeftHandThumb4]
38	19.54599953	-11.28499985	11.28499985	0	0	0	1.0
39	19.54599953	-11.28499985	11.28499985	0	0	0	1.0
40	19.54599953	-11.28499985	11.28499985	0	0	0	1.0
41	19.54599953	-11.28499985	11.28499985	0	0	0	1.0
[LeftHandIndex1]
38	91.09299469	-5.170999527	22.60099792	0.7365014553	-14.31941795	-5.189185143	1.0
39	91.09299469	-5.170999527	22.60099792	0.5303381681	-11.46640015	-5.701823711	1.0
40	91.09299469	-5.170999527	22.60099792	0.4767549634	-6.306528568	-6.756116867	1.0
41	91.09299469	-5.170999527	22.60099792	0.5804701447	-1.354906678	-7.292720318	1.0
[LeftHandIndex2]
38	36.76399994	0	0	-0.2911912799	1.821557522	-18.16347504	1.0
39	36.76399994	0	0	-0.2918923795	1.823682427	-18.18541145	1.0
40	36.76399994	0	0	-0.293073982	1.827275276	-18.22248459	1.0
41	36.76399994	0	0	-0.2938833833	1.829709411	-18.24772644	1.0
[LeftHandIndex3]
38	28.83100128	0	0	-0.06919148564	0.8966866136	-8.824795723	1.0
39	28.83100128	0	0	-0.06954299659	0.898925662	-8.84693718	1.0
40	28.83100128	0	0	-0.07011920214	0.902639091	-8.883804321	1.0
41	28.83100128	0	0	-0.07051423192	0.905156076	-8.908905029	1.0
[LeftHandIndex4]
38	23.92700005	0	0	0	0	0	1.0
39	23.92700005	0	0	0	0	0	1.0
40	23.92700005	0	0	0	0	0	1.0
41	23.92700005	0	0	0	0	0	1.0
[LeftHandMiddle1]
38	95.33399963	0	0	-0.2049357146	0.2856530547	-5.923099518	1.0
39	95.33399963	0	0	-0.2087353915	0.02180817351	-6.020555973	1.0
40	95.33399963	0	0	-0.2348525375	-0.1340063661	-6.538673878	1.0
41	95.33399963	0	0	-0.2691295147	-0.03667494655	-7.181497097	1.0
[LeftHandMiddle2]
38	36.98199844	0	0	-0.2872190177	1.809393287	-18.0379982	1.0
39	36.98199844	0	0	-0.2889615595	1.814738631	-18.0931797	1.0
40	36.98199844	0	0	-0.2896064222	1.816717744	-18.11358261	1.0
41	36.98199844	0	0	-0.2893496752	1.815932512	-18.10562897	1.0
[LeftHandMiddle3]
38	29.50900078	0	0	-0.3202855885	1.907911897	-19.05736542	1.0
39	29.50900078	0	0	-0.3222535253	1.913589001	-19.11635971	1.0
40	29.50900078	0	0	-0.3230398297	1.915850043	-19.13993073	1.0
41	29.50900078	0	0	-0.3227511346	1.915016651	-19.13139915	1.0
[LeftHandMiddle4]
38	28.3390007	0	0	0	0	0	1.0
39	28.3390007	0	0	0	0	0	1.0
40	28.3390007	0	0	0	0	0	1.0
41	28.3390007	0	0	0	0	0	1.0
[LeftHandRing1]
38	91.04499817	-0.4390000105	-18.65100098	-0.6038307548	11.69680691	-13.56534958	1.0
39	91.04499817	-0.4390000105	-18.65100098	-0.6343641877	9.873538971	-13.73665047	1.0
40	91.04499817	-0.4390000105	-18.65100098	-0.680711627	6.910385132	-14.09531784	1.0
41	91.04499817	-0.4390000105	-18.65100098	-0.7458121181	4.099155426	-14.97381401	1.0
[LeftHandRing2]
38	31.54000092	0	0	-0.4112896025	2.153129101	-21.62454414	1.0
39	31.54000092	0	0	-0.4209839702	2.177561045	-21.88254738	1.0
40	31.54000092	0	0	-0.4197891355	2.174512625	-21.85054588	1.0
41	31.54000092	0	0	-0.4118582308	2.154644966	-21.64060593	1.0
[LeftHandRing3]
38	29.37700081	0	0	-0.3049100637	1.862724066	-18.58924484	1.0
39	29.37700081	0	0	-0.313223362	1.887441635	-18.84501266	1.0
40	29.37700081	0	0	-0.3120447695	1.883921027	-18.80856323	1.0
41	29.37700081	0	0	-0.3050381541	1.863189578	-18.59396362	1.0
[LeftHandRing4]
38	26.47500038	0	0	0	0	0	1.0
39	26.47500038	0	0	0	0	0	1.0
40	26.47500038	0	0	0	0	0	1.0
41	26.47500038	0	0	0	0	0	1.0
[LeftHandPinky1]
38	80.77799988	-4.887000084	-38.06099701	-0.9746423364	23.94274712	-19.49219704	1.0
39	80.77799988	-4.887000084	-38.06099701	-1.120675325	19.91319466	-20.998106	1.0
40	80.77799988	-4.887000084	-38.06099701	-1.375784039	12.75356388	-23.18434525	1.0
41	80.77799988	-4.887000084	-38.06099701	-1.62990737	5.323754311	-25.46717453	1.0
[LeftHandPinky2]
38	36	0	0	-0.3302954435	1.936627626	-19.35596657	1.0
39	36	0	0	-0.3354274035	1.951261163	-19.50812721	1.0
40	36	0	0	-0.3274797201	1.928555489	-19.27201462	1.0
41	36	0	0	-0.3101335466	1.878292561	-18.75031471	1.0
[LeftHandPinky3]
38	21.14200211	0	0	-0.3004518151	1.84953773	-18.45257759	1.0
39	21.14200211	0	0	-0.3054098487	1.864409566	-18.60650253	1.0
40	21.14200211	0	0	-0.2978505492	1.841667295	-18.37143135	1.0
41	21.14200211	0	0	-0.2812788486	1.791053772	-17.84882927	1.0
[LeftHandPinky4]
38	19.75699997	0	0	0	0	0	1.0
39	19.75699997	0	0	0	0	0	1.0
40	19.75699997	0	0	0	0	0	1.0
41	19.75699997	0	0	0	0	0	1.0
[RightShoulder]
38	-45.70000076	109.4620056	-26.28000069	-2.866087198	17.42440033	-27.78432465	1.0
39	-45.70000076	109.4620056	-26.28000069	-1.972564816	16.08639145	-24.45385933	1.0
40	-45.70000076	109.4620056	-26.28000069	-0.4978967309	13.27462864	-18.59801674	1.0
41	-45.70000076	109.4620056	-26.28000069	1.159667253	9.664891243	-10.58781052	1.0
[RightArm]
38	-105.9280014	-5.248000145	-22.32099915	-1.873648167	-25.53124619	17.69650841	1.0
39	-105.9280014	-5.248000145	-22.32099915	-0.2475509942	-30.7849369	22.28394508	1.0
40	-105.9280014	-5.248000145	-22.32099915	-4.604907513	-31.74409485	29.12643433	1.0
41	-105.9280014	-5.248000145	-22.32099915	-12.79414654	-25.99225807	36.08824539	1.0
[RightForeArm]
38	-278.414978	0	0	-5.346270882e-06	51.62189484	8.569157899e-07	1.0
39	-278.414978	0	0	-4.067205282e-06	55.0913353	4.022571375e-06	1.0
40	-278.414978	0	0	-4.154753128e-07	54.74937439	5.983747542e-06	1.0
41	-278.414978	0	0	6.74291914e-06	50.12668228	1.25712595e-05	1.0
[RightHand]
38	-283.2879944	0	0.0009999999311	-7.023376465	-2.223576069	-34.62589264	1.0
39	-283.2879944	0	0.0009999999311	-6.657987118	-6.710337162	-36.51620865	1.0
40	-283.2879944	0	0.0009999999311	-7.576657295	-14.43910885	-37.04608154	1.0
41	-283.2879944	0	0.0009999999311	-11.20464897	-24.5161972	-35.72519302	1.0
[RightHandPinky1]
38	-80.76699829	-4.885000229	-38.06000137	-0.0925527066	-18.61284256	10.38715553	1.0
39	-80.76699829	-4.885000229	-38.06000137	-0.5636368394	-15.10083199	11.77059364	1.0
40	-80.76699829	-4.885000229	-38.06000137	-1.752734303	-9.903028488	17.4668808	1.0
41	-80.76699829	-4.885000229	-38.06000137	-2.748542547	-5.743383884	21.77893066	1.0
[RightHandPinky2]
38	-36	0	0.0009999999311	-0.03986840323	-0.6089417338	7.559497833	1.0
39	-36	0	0.0009999999311	-0.03482368961	-0.5685694814	7.05724287	1.0
40	-36	0	0.0009999999311	-0.03092022054	-0.534304738	6.631470203	1.0
41	-36	0	0.0009999999311	-0.02154166251	-0.4465915859	5.542207241	1.0
[RightHandPinky3]
38	-21.14200211	0	0	-0.03588446602	-0.5777572393	7.151726246	1.0
39	-21.14200211	0	0	-0.02989989892	-0.5271276832	6.522341251	1.0
40	-21.14200211	0	0	-0.02418949269	-0.4723687172	5.842432022	1.0
41	-21.14200211	0	0	-0.01484458894	-0.3708997965	4.584251404	1.0
[RightHandPinky4]
38	-19.75699997	0	0	0	0	0	1.0
39	-19.75699997	0	0	0	0	0	1.0
40	-19.75699997	0	0	0	0	0	1.0
41	-19.75699997	0	0	0	0	0	1.0
[RightHandRing1]
38	-91.03599548	-0.4390000105	-18.65100098	-0.278737247	-6.077010155	7.39146328	1.0
39	-91.03599548	-0.4390000105	-18.65100098	-0.2524141669	-5.058689594	6.802955627	1.0
40	-91.03599548	-0.4390000105	-18.65100098	-0.3544860482	-3.2744174	8.727424622	1.0
41	-91.03599548	-0.4390000105	-18.65100098	-0.3866701424	-1.887694955	9.401222229	1.0
[RightHandRing2]
38	-31.54000092	0	0	-0.08398129791	-0.8792484999	10.92229843	1.0
39	-31.54000092	0	0	-0.0746806711	-0.8302018642	10.30587959	1.0
40	-31.54000092	0	0	-0.06937415153	-0.7992056608	9.91757679	1.0
41	-31.54000092	0	0	-0.05401196703	-0.7059459686	8.750461578	1.0
[RightHandRing3]
38	-29.37700081	0	0	-0.04339860752	-0.6337640882	7.849396706	1.0
39	-29.37700081	0	0	-0.03688986972	-0.5854110122	7.247103691	1.0
40	-29.37700081	0	0	-0.03338609263	-0.5554068089	6.874160767	1.0
41	-29.37700081	0	0	-0.0231089592	-0.4625480771	5.720504284	1.0
[RightHandRing4]
38	-26.47500038	0	0	0	0	0	1.0
39	-26.47500038	0	0	0	0	0	1.0
40	-26.47500038	0	0	0	0	0	1.0
41	-26.47500038	0	0	0	0	0	1.0
[RightHandMiddle1]
38	-95.32500458	0	0	-0.2359829098	-0.1313315332	6.487235069	1.0
39	-95.32500458	0	0	-0.1571979821	-0.2407927662	4.857179165	1.0
40	-95.32500458	0	0	-0.1215985045	-0.2001359165	4.068080425	1.0
41	-95.32500458	0	0	-0.04035031423	-0.1600572467	2.224342823	1.0
[RightHandMiddle2]
38	-36.98199844	0	0	-0.06629799306	-0.7851352692	9.739553452	1.0
39	-36.98199844	0	0	-0.09168563038	-0.9113791585	11.33004093	1.0
40	-36.98199844	0	0	-0.1317812949	-1.099535942	13.70658684	1.0
41	-36.98199844	0	0	-0.1491586864	-1.166990638	14.56672859	1.0
[RightHandMiddle3]
38	-29.50900078	0	0	-0.08142264932	-0.8706843853	10.78804207	1.0
39	-29.50900078	0	0	-0.1090871543	-0.9962940216	12.3767395	1.0
40	-29.50900078	0	0	-0.1527176797	-1.184097886	14.75826073	1.0
41	-29.50900078	0	0	-0.1713756919	-1.251372933	15.62045097	1.0
[RightHandMiddle4]
38	-28.3390007	0	0.0009999999311	0	0	0	1.0
39	-28.3390007	0	0.0009999999311	0	0	0	1.0
40	-28.3390007	0	0.0009999999311	0	0	0	1.0
41	-28.3390007	0	0.0009999999311	0	0	0	1.0
[RightHandIndex1]
38	-91.08300018	-5.167999744	22.60099792	0.09201026708	14.94901657	4.146909237	1.0
39	-91.08300018	-5.167999744	22.60099792	0.01625922322	13.26417255	4.811181545	1.0
40	-91.08300018	-5.167999744	22.60099792	-0.04772469774	12.3756218	5.643004417	1.0
41	-91.08300018	-5.167999744	22.60099792	0.02892377786	11.83746338	3.929421663	1.0
[RightHandIndex2]
38	-36.76399994	0	0	-0.02612959966	-0.4898160398	6.059031963	1.0
39	-36.76399994	0	0	-0.01794250309	-0.4105232954	5.074965477	1.0
40	-36.76399994	0	0	-0.01766711101	-0.404608041	5.001990318	1.0
41	-36.76399994	0	0	-0.01837714761	-0.4125857055	5.100846767	1.0
[RightHandIndex3]
38	-28.83100128	0	0	-0.005205470137	0.213586092	-2.638079882	1.0
39	-28.83100128	0	0	-0.008759380318	0.2895708084	-3.57712245	1.0
40	-28.83100128	0	0	-0.008297859691	0.277156502	-3.423784971	1.0
41	-28.83100128	0	0	-0.006826628	0.2515930533	-3.107823372	1.0
[RightHandIndex4]
38	-23.92700005	0	0	0	0	0	1.0
39	-23.92700005	0	0	0	0	0	1.0
40	-23.92700005	0	0	0	0	0	1.0
41	-23.92700005	0	0	0	0	0	1.0
[RightHandThumb1]
38	-24.64799881	-15.72700024	26.82600021	-4.022126198	6.490723133	-2.234355927	1.0
39	-24.64799881	-15.72700024	26.82600021	-3.714105606	5.617008686	-2.467139721	1.0
40	-24.64799881	-15.72700024	26.82600021	-3.409848928	4.74970293	-2.704828262	1.0
41	-24.64799881	-15.72700024	26.82600021	-3.1285429	3.945447683	-2.931328297	1.0
[RightHandThumb2]
38	-32.29800034	-18.64699936	18.64699936	15.76493645	-2.856065273	-20.38707733	1.0
39	-32.29800034	-18.64699936	18.64699936	16.03703117	-4.047156811	-21.64946556	1.0
40	-32.29800034	-18.64699936	18.64699936	16.3292408	-4.422030449	-24.49718475	1.0
41	-32.29800034	-18.64699936	18.64699936	16.54220772	-4.098977089	-28.28512764	1.0
[RightHandThumb3]
38	-26.52600098	-15.31399918	15.31399918	-15.19899845	-8.244580269	-25.64235115	1.0
39	-26.52600098	-15.31399918	15.31399918	-15.86017227	-6.648470879	-25.92335129	1.0
40	-26.52600098	-15.31399918	15.31399918	-18.09415817	-1.549854636	-27.74085617	1.0
41	-26.52600098	-15.31399918	15.31399918	-21.46394539	5.922534466	-30.89866066	1.0
[RightHandThumb4]
38	-19.54599953	-11.28499985	11.28499985	0	0	0	1.0
39	-19.54599953	-11.28499985	11.28499985	0	0	0	1.0
40	-19.54599953	-11.28499985	11.28499985	0	0	0	1.0
41	-19.54599953	-11.28499985	11.28499985	0	0	0	1.0
[LeftUpLeg]
38	82.07800293	-67.51699829	-15.99599934	-33.6572113	15.21208382	4.431288242	1.0
39	82.07800293	-67.51699829	-15.99599934	-25.57460594	11.89340115	4.637868404	1.0
40	82.07800293	-67.51699829	-15.99599934	-27.19562912	11.38638496	5.279114723	1.0
41	82.07800293	-67.51699829	-15.99599934	-37.39247131	11.73421574	7.391402721	1.0
[LeftLeg]
38	0	-443.7049866	2.845999956	30.39043617	-2.44228673	-0.4741474986	1.0
39	0	-443.7049866	2.845999956	24.11986732	-4.155790806	2.928967476	1.0
40	0	-443.7049866	2.845999956	33.02456284	-6.370790482	1.979952693	1.0
41	0	-443.7049866	2.845999956	51.64305878	-9.054268837	-3.400997877	1.0
[LeftFoot]
38	0	-444.2789917	-29.8219986	20.00003052	1.354473233	-12.09361267	1.0
39	0	-444.2789917	-29.8219986	15.25234318	1.066316366	-10.13694	1.0
40	0	-444.2789917	-29.8219986	0.5992426872	-0.02731764875	-4.21848774	1.0
41	0	-444.2789917	-29.8219986	-16.36273193	-0.4025226235	-1.064507484	1.0
[LeftToeBase]
38	0	-87.28699493	107.1060028	-5.073922157	-0.02266045474	-0.1572921872	1.0
39	0	-87.28699493	107.1060028	-8.313926697	0.1334618926	0.9262560606	1.0
40	0	-87.28699493	107.1060028	-10.95756054	0.287071377	1.992331505	1.0
41	0	-87.28699493	107.1060028	-5.720677853	3.193482144e-06	-1.83935424e-06	1.0
[RightUpLeg]
38	-82.07800293	-67.51699829	-15.99599934	-76.38498688	-10.70796013	-0.02606919967	1.0
39	-82.07800293	-67.51699829	-15.99599934	-57.91046906	-12.63403416	-0.1889361292	1.0
40	-82.07800293	-67.51699829	-15.99599934	-42.56134415	-13.98556995	1.2144593	1.0
41	-82.07800293	-67.51699829	-15.99599934	-33.27758026	-13.63006973	4.342713356	1.0
[RightLeg]
38	0	-443.7049866	2.861999989	108.4435425	0.5291131139	-8.591870308	1.0
39	0	-443.7049866	2.861999989	93.65296936	-1.452106476	-10.1584053	1.0
40	0	-443.7049866	2.861999989	77.58457947	-4.101508141	-9.726276398	1.0
41	0	-443.7049866	2.861999989	64.3922348	-6.457186222	-8.134104729	1.0
[RightFoot]
38	0	-444.2770081	-29.83799934	5.972723007	-1.068996668	9.244859695	1.0
39	0	-444.2770081	-29.83799934	6.452970982	-1.892659068	11.35156345	1.0
40	0	-444.2770081	-29.83799934	3.282296896	-4.513895988	13.30893517	1.0
41	0	-444.2770081	-29.83799934	-4.651186466	-8.77814579	14.65845585	1.0
[RightToeBase]
38	0	-87.28699493	107.1060028	-8.030055046	4.872585578e-06	-9.194182553e-07	1.0
39	0	-87.28699493	107.1060028	-8.857236862	3.589347273e-07	2.723476484e-07	1.0
40	0	-87.28699493	107.1060028	-11.97727394	-1.803466944e-06	3.350052566e-06	1.0
41	0	-87.28699493	107.1060028	-15.11712933	1.765087916e-07	-3.107238854e-06	1.0
[EndOfFile]
